<?xml version="1.0" standalone="no"?>
<!DOCTYPE svg PUBLIC "-//W3C//DTD SVG 20010904//EN"
 "http://www.w3.org/TR/2001/REC-SVG-20010904/DTD/svg10.dtd">
<svg version="1.0" xmlns="http://www.w3.org/2000/svg"
 width="1051.000000pt" height="516.000000pt" viewBox="0 0 1051.000000 516.000000"
 preserveAspectRatio="xMidYMid meet">

<g transform="translate(0.000000,516.000000) scale(0.100000,-0.100000)"
fill="#000000" stroke="none">
<path d="M1845 4014 c-126 -27 -242 -84 -322 -158 -32 -30 -55 -57 -52 -60 3
-3 28 16 56 43 64 62 166 119 257 144 56 15 94 18 178 15 105 -4 107 -5 211
-57 57 -29 112 -51 123 -49 22 4 -119 79 -205 109 -51 18 -187 25 -246 13z"/>
<path d="M1410 3948 c-8 -13 -20 -36 -27 -52 -15 -34 -17 -146 -3 -146 6 0 10
29 10 68 0 50 5 76 21 101 23 37 22 64 -1 29z"/>
<path d="M2675 3894 c-43 -35 -121 -57 -192 -57 -35 1 -60 -3 -57 -8 9 -15
111 -10 171 7 30 9 69 29 86 44 40 35 33 47 -8 14z"/>
<path d="M8935 3900 c-53 -27 -97 -72 -123 -124 -23 -45 -29 -110 -12 -121 6
-4 10 8 10 30 0 94 92 201 181 208 19 1 33 7 32 12 -4 18 -47 15 -88 -5z"/>
<path d="M7594 3852 c8 -16 21 -33 28 -39 45 -35 250 -44 389 -17 58 11 136
16 249 16 177 0 238 -12 354 -68 53 -26 66 -29 66 -16 0 16 -175 90 -235 99
-146 24 -375 17 -455 -15 -38 -14 -204 -15 -283 -1 -60 11 -72 17 -86 41 -22
39 -47 39 -27 0z"/>
<path d="M5519 3780 c-42 -44 -51 -47 -69 -25 -7 8 -20 15 -28 15 -12 0 -13
-3 -4 -12 19 -19 15 -41 -6 -36 -32 9 -60 -70 -32 -87 6 -3 10 -13 10 -21 0
-12 -7 -10 -29 8 -24 19 -30 31 -30 64 -1 42 21 74 50 74 12 0 12 2 0 9 -31
20 -75 -32 -73 -84 2 -46 15 -65 64 -101 29 -21 65 -49 80 -62 17 -15 33 -22
44 -18 14 5 13 9 -10 27 -35 27 -27 34 19 18 37 -14 39 -21 19 -73 -3 -9 -2
-16 4 -16 5 0 32 46 60 103 78 157 88 201 52 237 -33 33 -77 26 -121 -20z m96
-10 c3 -5 2 -10 -4 -10 -5 0 -13 5 -16 10 -3 6 -2 10 4 10 5 0 13 -4 16 -10z"/>
<path d="M2537 3743 c-13 -12 -7 -23 11 -23 23 0 129 -70 192 -127 57 -51 121
-146 156 -233 38 -93 44 -216 14 -290 -12 -30 -29 -63 -37 -72 -15 -16 -15
-18 0 -18 34 0 92 152 84 219 -16 123 -47 210 -108 301 -50 75 -108 128 -211
194 -92 60 -91 59 -101 49z"/>
<path d="M1165 3669 c-44 -23 -82 -56 -74 -64 3 -2 25 10 48 27 33 24 57 33
97 36 30 2 51 8 48 13 -10 16 -79 9 -119 -12z"/>
<path d="M7903 3668 c-18 -6 -33 -15 -33 -19 0 -7 75 16 89 28 8 6 -24 1 -56
-9z"/>
<path d="M7779 3613 c-13 -15 -12 -15 11 -3 34 17 36 20 18 20 -9 0 -22 -7
-29 -17z"/>
<path d="M1252 3603 c-35 -13 -194 -256 -216 -333 -84 -283 -47 -501 105 -625
33 -27 74 -65 91 -84 25 -29 29 -39 23 -70 -7 -41 10 -33 20 9 8 37 -23 80
-108 150 -62 51 -80 72 -106 128 -66 144 -67 313 -4 502 26 76 173 301 205
313 7 2 11 7 8 9 -3 3 -11 3 -18 1z"/>
<path d="M2464 3532 c128 -157 173 -308 130 -436 -22 -65 -12 -68 16 -4 33 77
25 177 -23 282 -38 80 -45 91 -122 180 -73 85 -74 67 -1 -22z"/>
<path d="M4650 3580 c0 -5 5 -10 11 -10 5 0 7 5 4 10 -3 6 -8 10 -11 10 -2 0
-4 -4 -4 -10z"/>
<path d="M7705 3580 c-8 -13 5 -13 25 0 13 8 13 10 -2 10 -9 0 -20 -4 -23 -10z"/>
<path d="M4818 3529 c-2 -37 -8 -55 -21 -63 -23 -14 -47 15 -47 56 0 15 -4 28
-10 28 -15 0 -12 -38 6 -76 18 -37 43 -44 69 -18 10 10 24 14 40 10 14 -4 25
-2 25 4 0 5 -6 10 -14 10 -17 0 -26 22 -26 66 0 54 -19 39 -22 -17z"/>
<path d="M8950 3571 c0 -5 21 -18 48 -30 201 -92 261 -154 395 -411 74 -141
103 -235 112 -365 11 -164 -3 -241 -114 -655 -11 -41 -23 -86 -27 -100 -5 -19
-4 -22 5 -14 12 11 22 42 78 254 76 287 89 383 75 545 -15 171 -26 204 -162
450 -88 159 -158 222 -349 314 -49 23 -61 25 -61 12z"/>
<path d="M7640 3539 c0 -5 5 -7 10 -4 6 3 10 8 10 11 0 2 -4 4 -10 4 -5 0 -10
-5 -10 -11z"/>
<path d="M4484 3525 c14 -38 37 -138 34 -153 -4 -27 11 -42 43 -42 25 0 33 6
45 35 18 44 18 75 -2 103 -18 26 -41 28 -65 6 -17 -16 -19 -15 -29 10 -5 15
-10 34 -10 42 0 8 -5 14 -11 14 -6 0 -8 -7 -5 -15z m114 -97 c4 -52 -12 -78
-49 -78 -26 0 -29 2 -19 19 5 11 10 33 10 48 0 62 53 72 58 11z"/>
<path d="M2030 3522 c0 -4 4 -12 9 -17 5 -6 19 -38 31 -73 21 -57 22 -75 17
-191 -6 -133 -16 -170 -60 -218 -11 -13 -19 -25 -16 -27 10 -10 38 23 64 74
24 47 29 70 33 162 5 113 -4 166 -40 250 -18 42 -38 63 -38 40z"/>
<path d="M7554 3479 c-80 -69 -80 -69 -68 -69 5 0 30 21 57 45 26 24 55 49 65
54 9 5 14 12 11 15 -3 3 -32 -17 -65 -45z"/>
<path d="M4658 3509 c6 -7 12 -35 12 -61 0 -38 4 -48 16 -48 12 0 14 3 6 13
-6 7 -12 32 -14 56 -2 29 -8 46 -18 49 -12 4 -13 2 -2 -9z"/>
<path d="M7430 3362 c-80 -86 -159 -181 -200 -242 -53 -79 -106 -131 -157
-155 -21 -10 -33 -20 -26 -22 19 -7 86 33 124 74 20 21 59 72 87 113 27 41 58
84 68 95 79 86 155 175 148 175 -5 -1 -25 -18 -44 -38z"/>
<path d="M5028 3285 c-114 -61 -228 -148 -213 -163 3 -3 20 8 38 25 41 38 75
61 162 109 113 61 125 69 125 77 0 12 -10 7 -112 -48z"/>
<path d="M8118 3261 c-35 -33 -70 -72 -78 -87 -8 -16 -22 -37 -30 -46 -21 -26
-49 -99 -49 -128 l0 -25 11 25 c68 155 98 198 201 288 22 18 31 32 23 32 -9 0
-44 -27 -78 -59z"/>
<path d="M8181 3217 c-45 -96 -61 -147 -68 -221 -7 -67 13 -52 22 17 8 67 20
105 62 196 19 40 32 78 30 85 -3 6 -23 -28 -46 -77z"/>
<path d="M8260 3243 c-17 -58 -34 -307 -23 -328 7 -12 12 23 16 117 4 73 13
159 21 191 15 63 3 79 -14 20z"/>
<path d="M8500 3135 c0 -105 29 -240 77 -360 45 -113 64 -144 133 -224 88
-102 112 -127 154 -155 69 -47 61 -28 -26 57 -142 138 -183 197 -245 347 -52
127 -88 291 -80 368 2 24 0 45 -4 48 -5 3 -9 -33 -9 -81z"/>
<path d="M7925 3190 c-3 -5 -1 -10 4 -10 6 0 11 5 11 10 0 6 -2 10 -4 10 -3 0
-8 -4 -11 -10z"/>
<path d="M2817 3123 c-4 -27 -9 -59 -12 -73 -3 -16 2 -10 15 15 20 41 27 105
11 105 -4 0 -11 -21 -14 -47z"/>
<path d="M2392 3131 c-1 -29 -15 -61 -49 -111 l-17 -25 26 24 c32 28 58 80 58
115 0 36 -17 33 -18 -3z"/>
<path d="M1817 2997 c-30 -94 -66 -156 -139 -239 -64 -75 -46 -76 21 -2 58 63
136 214 147 282 4 23 5 42 2 42 -2 0 -16 -37 -31 -83z"/>
<path d="M7732 3053 c-24 -14 -41 -27 -39 -30 5 -4 75 32 92 48 17 17 -9 8
-53 -18z"/>
<path d="M7650 3000 c-8 -5 -10 -10 -5 -10 6 0 17 5 25 10 8 5 11 10 5 10 -5
0 -17 -5 -25 -10z"/>
<path d="M7565 2955 c-30 -14 -42 -24 -30 -24 11 0 31 6 44 13 14 8 30 12 37
9 6 -2 14 3 17 11 9 22 -8 19 -68 -9z"/>
<path d="M7593 2903 c-40 -41 -38 -51 6 -28 32 16 42 7 15 -16 -41 -34 -61
-123 -35 -154 19 -23 73 -55 93 -55 7 0 31 16 53 34 l40 34 -1 77 c-1 68 -4
79 -26 102 -15 14 -44 29 -68 33 -39 7 -44 5 -77 -27z m7 -174 c0 -5 -4 -9
-10 -9 -5 0 -10 7 -10 16 0 8 5 12 10 9 6 -3 10 -10 10 -16z"/>
<path d="M2560 2921 c-40 -7 -60 -37 -60 -91 0 -36 23 -80 41 -80 5 0 20 9 32
20 18 17 21 32 22 90 0 39 0 69 0 69 0 -1 -16 -4 -35 -8z"/>
<path d="M2023 2910 c-29 -12 -43 -40 -43 -90 0 -34 6 -48 34 -76 19 -19 39
-34 45 -34 19 0 51 63 51 100 0 20 -7 46 -16 58 -9 13 -13 29 -10 37 6 17 -25
19 -61 5z"/>
<path d="M8305 2892 c-10 -42 -20 -48 -39 -20 -20 28 -21 12 -1 -25 14 -27 13
-31 -10 -61 -20 -26 -25 -45 -25 -88 0 -46 4 -58 28 -80 42 -41 81 -52 104
-31 22 20 58 85 58 105 0 8 20 20 45 27 47 14 52 31 9 31 -13 0 -24 4 -24 9 0
19 -55 74 -87 87 -23 10 -35 24 -42 47 l-9 32 -7 -33z"/>
<path d="M2777 2873 c-3 -5 -8 -28 -12 -53 -4 -25 -17 -64 -30 -87 -13 -24
-21 -43 -19 -43 11 0 34 29 44 54 5 15 17 26 28 26 9 0 28 7 40 16 12 8 30 13
40 9 27 -9 72 -75 72 -107 0 -36 -23 -92 -56 -135 -28 -37 -19 -45 13 -10 72
79 77 184 10 246 -26 23 -65 26 -109 6 -16 -6 -17 -2 -12 39 6 42 2 58 -9 39z"/>
<path d="M9210 2877 c0 -2 8 -19 18 -38 13 -26 18 -68 22 -179 l5 -145 9 97
c4 54 5 119 1 145 -8 56 -33 123 -46 123 -5 0 -9 -2 -9 -3z"/>
<path d="M7220 2841 c-14 -27 -13 -84 3 -104 10 -14 12 -6 15 53 3 73 0 83
-18 51z"/>
<path d="M7367 2853 c-4 -3 -7 -13 -7 -22 1 -13 3 -13 11 2 11 19 8 33 -4 20z"/>
<path d="M7337 2780 c-18 -65 4 -150 49 -189 13 -11 24 -17 24 -12 0 5 -10 15
-21 23 -17 11 -23 31 -33 108 -9 68 -14 88 -19 70z"/>
<path d="M3993 2698 c-6 -7 -20 -45 -32 -85 -17 -56 -26 -73 -44 -78 -40 -11
-117 -48 -117 -57 0 -11 -4 -12 64 21 33 16 65 27 72 24 11 -4 27 30 56 122
15 47 48 62 48 22 0 -14 3 -32 6 -41 7 -18 45 -21 60 -6 12 12 125 32 133 25
2 -3 -13 -23 -34 -45 -42 -43 -41 -69 1 -29 27 25 54 70 54 89 0 15 -116 2
-153 -17 -33 -17 -38 -14 -53 30 -11 34 -43 47 -61 25z"/>
<path d="M6345 2676 c-18 -20 -38 -36 -43 -36 -6 0 -29 9 -53 20 -40 18 -109
27 -109 15 0 -3 6 -14 13 -25 14 -25 -2 -40 -44 -40 -14 0 -38 -11 -53 -24
-30 -25 -28 -44 11 -77 26 -24 192 -79 199 -67 9 14 -14 26 -62 34 -58 8 -138
54 -142 80 -3 20 4 23 68 35 77 13 92 23 64 43 -30 22 3 29 39 8 17 -11 46
-22 64 -25 29 -6 34 -3 55 31 l23 37 6 -45 c3 -25 12 -60 19 -77 6 -18 10 -36
8 -41 -7 -19 -177 -162 -192 -162 -18 0 -21 -21 -5 -37 6 -6 21 -39 34 -74 12
-35 29 -68 37 -73 18 -11 88 1 88 15 0 6 -9 7 -22 3 -13 -4 -30 -7 -38 -8 -16
-1 -78 106 -79 136 -1 19 82 101 137 135 43 26 84 29 102 7 8 -8 22 -20 32
-25 17 -9 18 -8 9 10 -6 11 -26 32 -45 46 -34 26 -53 81 -59 169 -1 22 -8 41
-15 44 -7 2 -28 -12 -47 -32z"/>
<path d="M1625 2639 c8 -36 37 -74 70 -92 12 -6 4 7 -17 31 -21 23 -38 51 -38
61 0 11 -5 23 -11 27 -8 4 -9 -4 -4 -27z"/>
<path d="M2776 2633 c9 -21 23 -52 31 -70 14 -30 13 -34 -5 -60 -59 -81 -183
-174 -291 -217 -39 -16 -71 -33 -71 -38 0 -10 31 -2 72 18 15 8 32 14 39 14 6
0 49 25 95 55 81 55 194 167 194 194 0 19 -61 141 -71 141 -4 0 -1 -17 7 -37z"/>
<path d="M1415 2612 c-105 -58 -141 -168 -88 -271 35 -68 74 -91 154 -91 59 0
135 27 159 55 18 22 4 32 -17 13 -37 -32 -83 -48 -140 -48 -100 0 -149 48
-160 154 -8 82 32 148 110 181 47 19 86 19 117 -1 22 -14 22 -12 -3 10 -36 33
-69 33 -132 -2z"/>
<path d="M2310 2603 c-88 -15 -140 -59 -140 -118 0 -38 37 -75 74 -75 18 0 16
3 -12 20 -37 23 -47 41 -38 73 12 46 19 50 77 38 62 -12 127 -1 141 24 24 42
39 -44 18 -101 -13 -32 -6 -44 9 -16 16 30 21 90 10 121 -13 36 -60 47 -139
34z m86 -25 c5 -7 -59 -28 -86 -28 -8 0 -21 4 -29 9 -11 7 -6 12 20 19 38 11
88 11 95 0z"/>
<path d="M7352 2552 c6 -15 10 -37 10 -49 -2 -20 32 -43 44 -31 8 9 -28 85
-46 96 -18 11 -19 10 -8 -16z"/>
<path d="M6320 2550 c0 -11 4 -20 9 -20 5 0 7 9 4 20 -3 11 -7 20 -9 20 -2 0
-4 -9 -4 -20z"/>
<path d="M7100 2509 c-35 -79 -23 -133 40 -168 21 -11 48 -21 61 -20 18 0 12
5 -19 16 -73 26 -99 90 -66 168 22 53 8 57 -16 4z"/>
<path d="M4086 2518 c-20 -29 -21 -88 -2 -88 9 0 12 7 9 20 -8 31 5 66 29 78
l23 11 -22 0 c-12 1 -29 -9 -37 -21z"/>
<path d="M4207 2498 c10 -89 -25 -138 -97 -138 -16 0 -32 -4 -35 -10 -7 -11
36 -13 85 -4 25 6 36 16 51 48 22 49 24 105 5 131 -13 18 -14 15 -9 -27z"/>
<path d="M3955 2493 c27 -64 32 -92 27 -146 -3 -41 -2 -58 6 -54 6 4 8 24 5
49 -4 29 -3 39 5 34 21 -12 13 32 -13 84 -24 47 -46 71 -30 33z"/>
<path d="M7300 2506 c0 -9 30 -14 35 -6 4 6 -3 10 -14 10 -12 0 -21 -2 -21 -4z"/>
<path d="M1445 2490 c-8 -13 5 -13 25 0 13 8 13 10 -2 10 -9 0 -20 -4 -23 -10z"/>
<path d="M1520 2485 c7 -8 17 -15 22 -15 6 0 5 7 -2 15 -7 8 -17 15 -22 15 -6
0 -5 -7 2 -15z"/>
<path d="M9238 2480 c-7 -24 -3 -38 8 -28 3 4 4 17 2 30 l-3 23 -7 -25z"/>
<path d="M7965 2464 c-12 -9 -31 -13 -47 -10 -26 5 -38 -6 -19 -18 4 -3 11
-42 13 -87 5 -78 7 -84 38 -112 26 -24 38 -28 64 -23 45 9 75 44 91 107 17 64
18 79 5 79 -5 0 -10 -16 -10 -35 0 -77 -55 -141 -113 -133 -33 5 -59 67 -55
136 3 49 6 58 30 72 25 13 30 13 57 -3 16 -9 36 -17 46 -17 25 0 76 30 70 40
-4 6 -18 4 -35 -5 -39 -20 -53 -19 -75 5 -21 24 -33 25 -60 4z"/>
<path d="M1481 2446 c-7 -8 -11 -30 -9 -48 3 -32 5 -33 48 -35 41 -1 42 -1 10
5 -29 6 -36 12 -38 35 -2 16 2 35 9 43 6 8 7 14 1 14 -5 0 -15 -6 -21 -14z"/>
<path d="M3682 2429 c-13 -10 -43 -24 -65 -29 -87 -22 -355 -133 -427 -176
-19 -12 -75 -43 -125 -70 -88 -48 -92 -49 -180 -50 -71 -1 -109 -8 -178 -31
-48 -17 -90 -33 -94 -37 -14 -13 27 -5 98 21 62 23 91 27 177 28 74 0 105 4
111 14 5 7 42 30 82 51 41 21 119 62 174 91 55 29 176 79 269 110 159 55 210
79 189 92 -4 3 -19 -3 -31 -14z"/>
<path d="M7385 2416 c-32 -33 -65 -95 -65 -122 0 -14 16 -41 37 -65 36 -40
221 -183 318 -247 63 -41 203 -110 232 -114 24 -3 32 13 11 23 -7 3 -56 26
-108 51 -152 73 -448 294 -465 348 -6 20 13 65 48 112 25 34 19 43 -8 14z"/>
<path d="M6672 2359 c5 -23 203 -209 221 -209 21 0 22 16 2 27 -8 5 -58 49
-111 98 -99 93 -118 107 -112 84z"/>
<path d="M3770 2345 c0 -16 27 -75 35 -75 2 0 -3 20 -12 45 -15 47 -23 56 -23
30z"/>
<path d="M1685 2293 c22 -22 311 -82 393 -83 32 0 32 0 32 -50 0 -27 5 -50 10
-50 6 0 10 27 10 60 l0 60 -44 0 c-25 0 -114 14 -198 31 -200 41 -215 43 -203
32z"/>
<path d="M9004 2280 c-33 -13 -44 -35 -13 -25 64 20 93 17 135 -13 56 -41 79
-91 78 -173 -1 -75 -24 -118 -85 -162 -76 -55 -244 -24 -284 53 -17 33 -31 33
-102 3 -18 -7 -42 -13 -54 -13 -13 0 -36 -4 -53 -9 -82 -25 -247 -53 -341 -58
-58 -3 -105 -10 -105 -15 0 -4 13 -8 28 -8 40 0 43 -6 21 -53 -18 -41 -27
-121 -11 -101 4 5 16 35 27 67 10 31 25 63 33 70 8 6 45 17 81 23 147 26 201
37 301 61 58 14 112 29 120 33 10 6 27 -4 56 -29 59 -56 126 -75 210 -62 76
11 101 26 141 78 26 34 28 43 28 127 0 83 -3 95 -28 134 -46 71 -117 99 -183
72z"/>
<path d="M3934 2218 c-35 -37 -36 -39 -8 -20 35 24 59 50 52 57 -2 3 -22 -14
-44 -37z"/>
<path d="M8888 2233 c6 -2 18 -2 25 0 6 3 1 5 -13 5 -14 0 -19 -2 -12 -5z"/>
<path d="M8802 2218 c-25 -32 -43 -81 -34 -90 7 -7 14 2 20 26 6 20 21 45 34
56 18 15 19 19 7 20 -9 0 -21 -6 -27 -12z"/>
<path d="M2417 2185 c-18 -39 -24 -140 -7 -130 6 3 10 25 10 48 0 23 4 58 10
76 13 46 7 49 -13 6z"/>
<path d="M3865 2160 c-3 -6 1 -7 9 -4 18 7 21 14 7 14 -6 0 -13 -4 -16 -10z"/>
<path d="M8947 2153 c-16 -8 -26 -17 -24 -20 3 -2 14 0 25 6 12 6 45 15 74 20
l53 9 -50 0 c-27 0 -63 -7 -78 -15z"/>
<path d="M7120 2132 c0 -17 4 -34 10 -37 6 -4 7 6 3 27 -8 44 -13 48 -13 10z"/>
<path d="M2043 2123 c9 -2 23 -2 30 0 6 3 -1 5 -18 5 -16 0 -22 -2 -12 -5z"/>
<path d="M6370 2068 c4 -18 16 -64 28 -103 11 -38 25 -92 31 -120 33 -161 52
-259 65 -327 16 -85 26 -97 151 -191 33 -25 82 -68 110 -96 49 -51 65 -61 65
-40 0 18 -111 128 -155 154 -57 34 -141 125 -149 160 -4 17 -13 64 -21 105 -7
41 -18 89 -24 105 -5 17 -17 73 -27 125 -9 52 -25 120 -36 150 -10 30 -18 56
-18 58 0 1 -2 13 -6 27 -9 37 -23 30 -14 -7z"/>
<path d="M9016 2063 c9 -51 14 -54 14 -10 0 20 -5 39 -11 42 -7 5 -8 -5 -3
-32z"/>
<path d="M2470 2077 c1 -6 25 -29 55 -50 l55 -38 1 -62 2 -62 7 65 c4 36 7 66
6 67 -17 19 -126 89 -126 80z"/>
<path d="M1952 2040 c-12 -21 -22 -45 -22 -52 1 -7 12 9 26 35 31 59 28 71 -4
17z"/>
<path d="M3773 2053 c-11 -15 -42 -71 -69 -123 -28 -55 -75 -126 -112 -168
-35 -40 -62 -77 -60 -83 7 -22 135 148 190 253 31 60 62 116 69 124 6 8 9 17
7 20 -3 3 -15 -7 -25 -23z"/>
<path d="M2056 2039 c27 -30 140 -109 156 -109 7 0 0 11 -17 23 -16 12 -54 41
-82 65 -55 44 -90 57 -57 21z"/>
<path d="M7062 2018 c3 -7 28 -25 57 -40 68 -35 98 -58 213 -166 108 -102 117
-107 244 -151 103 -35 111 -36 95 -17 -6 7 -48 26 -93 41 -105 36 -118 44
-214 134 -95 90 -182 155 -248 187 -58 28 -59 28 -54 12z"/>
<path d="M8987 1980 c-9 -11 -13 -20 -8 -20 11 0 35 29 29 35 -2 2 -12 -4 -21
-15z"/>
<path d="M2445 1889 c-88 -76 -91 -79 -79 -79 6 0 44 31 85 70 41 38 72 69 69
69 -3 0 -36 -27 -75 -60z"/>
<path d="M1859 1882 c-21 -15 -70 -56 -109 -92 -40 -36 -117 -105 -172 -154
-54 -48 -97 -91 -94 -94 3 -3 34 21 68 54 35 33 95 86 133 119 39 33 96 83
128 112 32 29 64 53 70 53 7 0 25 -18 41 -40 31 -42 93 -90 116 -90 7 0 -5 13
-26 29 -38 27 -72 63 -104 108 l-15 22 -36 -27z"/>
<path d="M7535 1900 c-8 -13 15 -13 35 0 12 8 11 10 -7 10 -12 0 -25 -4 -28
-10z"/>
<path d="M2256 1892 c-3 -5 8 -24 24 -43 35 -41 39 -31 6 17 -13 20 -26 31
-30 26z"/>
<path d="M7443 1883 c15 -2 37 -2 50 0 12 2 0 4 -28 4 -27 0 -38 -2 -22 -4z"/>
<path d="M2500 1856 c0 -2 8 -10 18 -17 15 -13 16 -12 3 4 -13 16 -21 21 -21
13z"/>
<path d="M2134 1794 c-60 -46 -91 -85 -38 -47 39 29 110 92 103 93 -3 0 -32
-21 -65 -46z"/>
<path d="M7890 1831 c0 -5 7 -22 15 -37 20 -38 20 -124 1 -124 -8 0 -16 6 -19
13 -2 6 -7 10 -10 7 -8 -8 64 -110 74 -104 4 2 2 16 -6 30 -9 18 -10 35 -4 57
14 51 10 99 -11 135 -19 30 -40 43 -40 23z"/>
<path d="M9561 1816 c-10 -12 -9 -14 7 -9 12 3 22 -2 26 -13 6 -16 8 -16 16
-4 6 8 10 21 10 28 0 17 -45 15 -59 -2z"/>
<path d="M8517 1814 c-8 -8 11 -34 23 -34 5 0 41 -15 82 -33 115 -52 124 -56
175 -62 78 -9 206 -12 238 -5 17 3 -33 9 -112 13 -114 6 -154 12 -210 32 -110
41 -147 58 -169 77 -11 10 -23 15 -27 12z"/>
<path d="M9035 1790 c10 -11 20 -20 23 -20 3 0 -3 9 -13 20 -10 11 -20 20 -23
20 -3 0 3 -9 13 -20z"/>
<path d="M9575 1758 c-5 -11 4 -31 27 -57 23 -28 34 -36 36 -25 2 9 -5 26 -16
37 -10 12 -24 31 -30 42 -10 18 -11 18 -17 3z"/>
<path d="M7838 1744 c-7 -8 -21 -23 -30 -32 -34 -31 -18 -34 17 -3 20 17 40
31 46 31 6 0 7 5 4 10 -9 14 -22 12 -37 -6z"/>
<path d="M9480 1749 c0 -5 5 -7 10 -4 6 3 10 8 10 11 0 2 -4 4 -10 4 -5 0 -10
-5 -10 -11z"/>
<path d="M8270 1732 c0 -4 14 -16 30 -25 17 -10 30 -13 30 -8 0 6 -13 17 -30
26 -16 9 -30 12 -30 7z"/>
<path d="M9277 1698 c12 -13 23 -36 26 -53 4 -28 4 -28 6 6 0 24 -5 42 -17 52
-28 25 -39 20 -15 -5z"/>
<path d="M2316 1598 c-4 -51 -12 -117 -17 -147 -7 -35 -8 -56 -1 -63 7 -7 12
16 16 68 4 44 11 103 16 133 12 67 13 101 1 101 -5 0 -11 -42 -15 -92z"/>
<path d="M8255 1623 l-18 -28 27 24 c28 26 31 31 17 31 -5 0 -17 -12 -26 -27z"/>
<path d="M8380 1568 c0 -46 5 -90 10 -98 7 -10 10 16 10 83 0 58 -4 97 -10 97
-6 0 -10 -34 -10 -82z"/>
<path d="M8990 1632 c0 -11 86 -52 108 -52 9 0 -10 14 -43 30 -68 34 -65 33
-65 22z"/>
<path d="M9396 1625 c4 -8 11 -15 16 -15 6 0 5 6 -2 15 -7 8 -14 15 -16 15 -2
0 -1 -7 2 -15z"/>
<path d="M8183 1564 c-20 -18 -22 -22 -7 -15 21 10 52 41 41 41 -3 0 -19 -12
-34 -26z"/>
<path d="M9163 1573 c15 -2 39 -2 55 0 15 2 2 4 -28 4 -30 0 -43 -2 -27 -4z"/>
<path d="M3417 1548 c-8 -12 -27 -45 -43 -73 -34 -58 -37 -64 -85 -136 -20
-30 -51 -72 -69 -94 -18 -22 -48 -71 -67 -110 l-34 -70 7 125 c3 69 3 122 -1
118 -9 -8 -34 -299 -27 -312 3 -5 29 40 58 100 29 60 86 155 126 211 73 102
90 129 136 211 25 46 24 71 -1 30z"/>
<path d="M7691 1535 c-1 -53 25 -189 40 -212 7 -13 19 -23 26 -23 7 0 33 28
58 63 25 34 48 67 53 72 4 6 20 27 36 48 16 20 35 37 42 37 8 0 14 9 14 20 0
11 -4 20 -9 20 -5 0 -48 -52 -96 -115 -47 -63 -89 -115 -93 -115 -17 0 -41 70
-48 135 -7 75 -23 123 -23 70z"/>
<path d="M8060 1494 c-44 -72 -60 -104 -52 -104 11 0 84 120 80 132 -2 6 -15
-6 -28 -28z"/>
<path d="M7956 1488 c-9 -29 0 -68 15 -68 10 0 10 34 -1 70 l-7 25 -7 -27z"/>
<path d="M8446 1491 c-4 -5 5 -13 18 -18 30 -10 112 -86 152 -141 37 -50 113
-118 182 -161 28 -18 71 -54 95 -80 45 -51 67 -68 67 -53 0 21 -97 116 -161
158 -37 24 -89 68 -115 96 -178 190 -222 226 -238 199z"/>
<path d="M8176 1425 c7 -67 25 -135 36 -135 16 0 59 32 69 53 13 23 -2 17 -38
-16 l-22 -19 -15 37 c-9 21 -16 47 -17 59 -1 11 -5 32 -9 46 -6 18 -7 10 -4
-25z"/>
<path d="M1333 1410 c-20 -8 -108 -65 -262 -170 -35 -24 -59 -46 -53 -48 7 -2
52 25 100 61 48 35 124 86 170 112 45 26 82 49 82 51 0 6 -13 4 -37 -6z"/>
<path d="M3132 1350 c0 -19 2 -27 5 -17 2 9 2 25 0 35 -3 9 -5 1 -5 -18z"/>
<path d="M7965 1307 c-4 -10 -5 -21 -1 -24 10 -10 18 4 13 24 -4 17 -4 17 -12
0z"/>
<path d="M7908 1122 c-34 -136 -41 -172 -29 -152 11 19 65 249 59 255 -2 2
-16 -44 -30 -103z"/>
<path d="M2301 1079 c-1 -75 2 -90 21 -115 12 -16 27 -32 33 -36 6 -4 -10 -28
-40 -60 -51 -53 -41 -50 23 9 20 18 39 33 43 33 4 0 21 -13 39 -30 27 -26 31
-34 25 -62 -4 -18 -31 -64 -60 -103 -30 -38 -52 -72 -49 -74 13 -13 115 144
121 188 4 31 1 41 -27 68 l-32 31 46 60 c25 33 46 64 46 68 0 4 -14 -12 -32
-37 -34 -46 -66 -79 -78 -79 -4 0 -18 9 -31 19 -20 16 -26 34 -35 113 l-11 93
-2 -86z"/>
<path d="M820 1115 c-14 -8 -33 -14 -43 -15 -10 0 -32 -8 -50 -17 -18 -9 -45
-20 -62 -24 l-30 -7 31 -1 c16 -1 39 6 50 14 10 8 28 15 39 15 23 0 127 49
105 49 -8 0 -26 -6 -40 -14z"/>
<path d="M6936 1030 c5 -55 83 -239 111 -262 22 -18 15 9 -14 55 -33 51 -83
170 -84 200 0 12 -5 31 -10 42 -6 14 -7 3 -3 -35z"/>
<path d="M338 1003 l-48 -4 24 -47 c13 -26 36 -58 50 -71 20 -19 23 -27 15
-43 -18 -34 -4 -48 50 -48 27 0 53 5 56 10 4 6 -12 10 -40 10 -46 0 -47 0 -40
29 5 25 2 33 -19 46 -33 22 -70 85 -57 98 10 10 130 4 169 -8 16 -5 22 -3 22
8 0 9 -8 16 -17 16 -10 0 -40 2 -68 4 -27 3 -71 2 -97 0z"/>
<path d="M9110 945 c0 -8 19 -23 43 -33 59 -26 227 -129 258 -158 28 -27 39
-30 39 -11 0 17 -40 46 -120 88 -36 18 -97 55 -136 81 -77 52 -84 55 -84 33z"/>
<path d="M501 915 c-1 -49 8 -85 21 -85 6 0 7 11 3 28 -4 15 -11 43 -15 62
l-8 35 -1 -40z"/>
<path d="M657 923 c-11 -10 -8 -103 3 -103 6 0 10 25 10 55 0 56 -1 60 -13 48z"/>
<path d="M3095 898 c-2 -7 -7 -71 -10 -142 l-7 -128 -37 -42 -36 -41 40 34
c22 19 43 45 47 58 9 34 22 273 14 273 -4 0 -8 -6 -11 -12z"/>
<path d="M1495 845 c3 -16 8 -83 12 -147 3 -69 10 -118 16 -118 16 0 2 219
-17 260 -16 34 -16 35 -11 5z"/>
<path d="M8868 847 c-3 -19 -2 -25 4 -19 6 6 8 18 6 28 -3 14 -5 12 -10 -9z"/>
<path d="M574 768 c-3 -4 15 -8 40 -8 25 0 46 2 46 4 0 8 -82 11 -86 4z"/>
<path d="M840 770 c0 -5 21 -10 48 -10 26 0 104 -14 174 -31 l127 -32 92 18
c79 15 99 16 146 5 72 -18 77 -7 8 15 -52 16 -61 16 -136 1 -106 -21 -115 -21
-253 14 -119 30 -206 39 -206 20z"/>
<path d="M7807 743 c-4 -6 -2 -31 5 -56 12 -46 10 -56 -19 -96 -17 -23 -17
-24 2 -13 11 5 29 20 39 31 18 20 18 23 3 58 -9 21 -18 49 -19 63 -2 16 -6 21
-11 13z"/>
<path d="M8826 694 c-4 -20 -5 -38 -2 -41 2 -3 8 11 12 31 3 21 4 39 1 42 -2
3 -8 -11 -11 -32z"/>
<path d="M7102 671 c-14 -45 -16 -147 -3 -155 5 -3 11 29 14 72 2 42 8 87 12
100 4 12 3 22 -2 22 -6 0 -15 -17 -21 -39z"/>
<path d="M9510 661 c0 -5 14 -14 30 -20 34 -11 39 -5 13 15 -21 15 -43 18 -43
5z"/>
<path d="M9590 637 c3 -3 46 -22 97 -42 101 -40 182 -88 184 -107 1 -7 0 -51
-1 -97 -2 -110 15 -98 23 16 5 75 10 90 29 105 l23 18 -35 0 c-19 0 -61 14
-93 31 -82 43 -248 99 -227 76z"/>
<path d="M8795 599 c-4 -6 -5 -12 -2 -15 2 -3 7 2 10 11 7 17 1 20 -8 4z"/>
<path d="M10035 575 l-40 -14 55 2 c50 2 55 0 58 -20 4 -29 18 -30 25 -1 12
46 -24 58 -98 33z"/>
<path d="M2065 515 c-44 -13 -92 -24 -107 -24 -16 -1 -28 -6 -28 -12 0 -6 8
-8 18 -5 9 3 37 10 62 16 62 14 168 48 150 48 -8 0 -51 -10 -95 -23z"/>
<path d="M2180 481 c0 -7 29 -11 88 -11 90 -1 196 -15 339 -46 l83 -18 54 29
c30 16 53 31 51 34 -2 2 -22 -6 -45 -18 -43 -22 -102 -27 -144 -12 -70 27
-426 62 -426 42z"/>
<path d="M1540 473 c0 -7 66 -31 168 -61 6 -2 12 1 12 6 0 5 -35 19 -77 32
-43 13 -84 25 -90 27 -7 3 -13 1 -13 -4z"/>
<path d="M9741 464 c0 -11 3 -14 6 -6 3 7 2 16 -1 19 -3 4 -6 -2 -5 -13z"/>
<path d="M1830 458 c-35 -10 -64 -28 -44 -28 5 0 34 9 64 20 57 20 42 26 -20
8z"/>
<path d="M7066 388 l-39 -87 53 -61 c28 -33 59 -60 68 -60 13 0 10 6 -10 25
-15 13 -38 40 -53 59 -24 32 -25 37 -15 78 7 24 19 56 27 71 8 16 13 36 11 45
-2 9 -21 -22 -42 -70z"/>
<path d="M7825 440 c-4 -12 -5 -24 -2 -27 3 -2 8 5 12 17 4 12 5 24 2 27 -3 2
-8 -5 -12 -17z"/>
<path d="M1583 392 c-5 -10 -18 -44 -27 -77 -10 -33 -33 -102 -52 -154 -23
-60 -32 -97 -26 -103 7 -7 16 11 26 49 9 32 22 69 28 83 6 14 21 57 34 97 12
40 28 81 33 92 14 25 -1 36 -16 13z"/>
<path d="M10019 373 c-5 -59 -3 -80 9 -71 14 12 16 78 2 78 -5 0 -10 -3 -11
-7z"/>
<path d="M7807 363 c-4 -3 -7 -24 -7 -46 0 -50 11 -42 17 13 5 40 3 46 -10 33z"/>
<path d="M2914 283 c3 -38 8 -116 12 -175 4 -63 11 -108 17 -108 6 0 7 34 3
98 -14 204 -19 252 -28 252 -6 0 -8 -26 -4 -67z"/>
<path d="M8788 280 c-4 -25 -4 -74 -1 -109 5 -55 4 -66 -12 -77 -10 -8 -17
-16 -14 -18 2 -3 14 3 27 12 25 20 27 36 15 157 -8 77 -9 78 -15 35z"/>
<path d="M7905 190 c-3 -6 3 -10 17 -10 33 0 118 -34 174 -70 29 -18 60 -30
78 -29 21 1 25 3 11 6 -10 3 -55 24 -100 48 -44 23 -93 45 -110 49 -16 4 -37
9 -47 12 -9 3 -19 0 -23 -6z"/>
<path d="M7357 160 c-32 -4 -61 -11 -65 -15 -11 -12 130 3 142 15 11 11 11 11
-77 0z"/>
<path d="M7223 143 c9 -2 25 -2 35 0 9 3 1 5 -18 5 -19 0 -27 -2 -17 -5z"/>
<path d="M8325 120 c-17 -8 -15 -9 10 -8 28 1 60 -7 148 -38 20 -8 37 -10 37
-5 0 5 -15 14 -32 21 -18 6 -48 18 -66 26 -37 16 -67 17 -97 4z"/>
<path d="M7125 100 c-7 -23 1 -40 19 -40 9 0 12 9 8 25 -6 33 -19 40 -27 15z"/>
<path d="M8975 100 c3 -4 14 -10 25 -13 11 -3 18 -2 15 3 -3 4 -14 10 -25 13
-11 3 -18 2 -15 -3z"/>
<path d="M8268 93 c7 -3 16 -2 19 1 4 3 -2 6 -13 5 -11 0 -14 -3 -6 -6z"/>
<path d="M8564 45 c22 -17 36 -19 36 -6 0 10 -24 21 -43 21 -7 0 -3 -7 7 -15z"/>
<path d="M8713 49 c-8 -8 -6 -16 8 -30 17 -17 39 -25 39 -14 0 10 -24 55 -30
55 -3 0 -11 -5 -17 -11z"/>
</g>
</svg>
